<svg width="181" height="179" viewBox="0 0 181 179" fill="none" xmlns="http://www.w3.org/2000/svg">
<path d="M62.8602 48.5464C64.942 39.3077 75.8871 35.324 83.4204 41.0631L144.374 87.4997C152.552 93.7304 150.603 106.54 140.942 110.057L63.1445 138.373C53.4832 141.889 43.7562 133.329 46.0163 123.299L62.8602 48.5464Z" stroke="#1E90FF" stroke-width="4"/>
<path d="M97.6786 41.234C105.212 35.4948 116.157 39.4785 118.239 48.7172L135.083 123.47C137.343 133.5 127.616 142.06 117.955 138.543L40.1573 110.227C30.496 106.711 28.547 93.9012 36.7254 87.6706L97.6786 41.234Z" stroke="black" stroke-width="4"/>
<path d="M9.24432 178H5.92045L15.5341 151.818H18.8068L28.4205 178H25.0966L17.2727 155.96H17.0682L9.24432 178ZM10.4716 167.773H23.8693V170.585H10.4716V167.773ZM35.1065 151.818V178H32.0895V151.818H35.1065ZM48.8654 178.409C46.9734 178.409 45.3413 177.991 43.9691 177.156C42.6055 176.312 41.5529 175.136 40.8114 173.628C40.0785 172.111 39.712 170.347 39.712 168.335C39.712 166.324 40.0785 164.551 40.8114 163.017C41.5529 161.474 42.5842 160.273 43.9052 159.412C45.2347 158.543 46.7859 158.108 48.5586 158.108C49.5813 158.108 50.5913 158.278 51.5884 158.619C52.5856 158.96 53.4933 159.514 54.3114 160.281C55.1296 161.04 55.7816 162.045 56.2674 163.298C56.7532 164.551 56.9961 166.094 56.9961 167.926V169.205H41.8597V166.597H53.9279C53.9279 165.489 53.7063 164.5 53.2631 163.631C52.8285 162.761 52.2063 162.075 51.3967 161.572C50.5955 161.07 49.6495 160.818 48.5586 160.818C47.3569 160.818 46.3171 161.116 45.4393 161.713C44.57 162.301 43.9009 163.068 43.4322 164.014C42.9634 164.96 42.729 165.974 42.729 167.057V168.795C42.729 170.278 42.9847 171.536 43.4961 172.567C44.016 173.589 44.7362 174.369 45.6566 174.906C46.5771 175.435 47.6467 175.699 48.8654 175.699C49.658 175.699 50.3739 175.588 51.0131 175.366C51.6609 175.136 52.2191 174.795 52.6879 174.344C53.1566 173.884 53.5188 173.312 53.7745 172.631L56.6893 173.449C56.3825 174.438 55.8668 175.307 55.1424 176.057C54.418 176.798 53.5231 177.378 52.4577 177.795C51.3924 178.205 50.195 178.409 48.8654 178.409ZM64.3981 170.841L64.3469 167.108H64.9606L73.5515 158.364H77.2844L68.131 167.619H67.8754L64.3981 170.841ZM61.5856 178V151.818H64.6026V178H61.5856ZM74.0629 178L66.3924 168.284L68.5401 166.188L77.8981 178H74.0629ZM95.0767 162.761L92.3665 163.528C92.196 163.077 91.9446 162.638 91.6122 162.212C91.2884 161.777 90.8452 161.419 90.2827 161.138C89.7202 160.857 89 160.716 88.1222 160.716C86.9205 160.716 85.919 160.993 85.1179 161.547C84.3253 162.092 83.929 162.787 83.929 163.631C83.929 164.381 84.2017 164.973 84.7472 165.408C85.2926 165.842 86.1449 166.205 87.304 166.494L90.2188 167.21C91.9744 167.636 93.2827 168.288 94.1435 169.166C95.0043 170.036 95.4347 171.156 95.4347 172.528C95.4347 173.653 95.1108 174.659 94.4631 175.545C93.8239 176.432 92.929 177.131 91.7784 177.642C90.6278 178.153 89.2898 178.409 87.7642 178.409C85.7614 178.409 84.1037 177.974 82.7912 177.105C81.4787 176.236 80.6477 174.966 80.2983 173.295L83.1619 172.58C83.4347 173.636 83.9503 174.429 84.7088 174.957C85.4759 175.486 86.4773 175.75 87.7131 175.75C89.1193 175.75 90.2358 175.452 91.0625 174.855C91.8977 174.25 92.3153 173.526 92.3153 172.682C92.3153 172 92.0767 171.429 91.5994 170.969C91.1222 170.5 90.3892 170.151 89.4006 169.92L86.1278 169.153C84.3295 168.727 83.0085 168.067 82.1648 167.172C81.3295 166.268 80.9119 165.139 80.9119 163.784C80.9119 162.676 81.223 161.696 81.8452 160.844C82.4759 159.991 83.3324 159.322 84.4148 158.837C85.5057 158.351 86.7415 158.108 88.1222 158.108C90.0653 158.108 91.5909 158.534 92.6989 159.386C93.8153 160.239 94.608 161.364 95.0767 162.761ZM105.755 178.46C104.51 178.46 103.381 178.226 102.367 177.757C101.353 177.28 100.547 176.594 99.9506 175.699C99.354 174.795 99.0558 173.705 99.0558 172.426C99.0558 171.301 99.2773 170.389 99.7205 169.69C100.164 168.983 100.756 168.429 101.498 168.028C102.239 167.628 103.057 167.33 103.952 167.134C104.855 166.929 105.763 166.767 106.675 166.648C107.868 166.494 108.836 166.379 109.577 166.303C110.327 166.217 110.873 166.077 111.213 165.881C111.563 165.685 111.738 165.344 111.738 164.858V164.756C111.738 163.494 111.392 162.514 110.702 161.815C110.02 161.116 108.985 160.767 107.596 160.767C106.155 160.767 105.026 161.082 104.208 161.713C103.39 162.344 102.814 163.017 102.482 163.733L99.6183 162.71C100.13 161.517 100.811 160.588 101.664 159.923C102.525 159.25 103.462 158.781 104.476 158.517C105.499 158.244 106.505 158.108 107.493 158.108C108.124 158.108 108.848 158.185 109.667 158.338C110.493 158.483 111.29 158.786 112.057 159.246C112.833 159.706 113.476 160.401 113.988 161.33C114.499 162.259 114.755 163.503 114.755 165.062V178H111.738V175.341H111.584C111.38 175.767 111.039 176.223 110.561 176.709C110.084 177.195 109.449 177.608 108.657 177.949C107.864 178.29 106.897 178.46 105.755 178.46ZM106.215 175.75C107.408 175.75 108.414 175.516 109.232 175.047C110.059 174.578 110.681 173.973 111.098 173.232C111.525 172.49 111.738 171.71 111.738 170.892V168.131C111.61 168.284 111.328 168.425 110.894 168.553C110.468 168.672 109.973 168.778 109.411 168.872C108.857 168.957 108.316 169.034 107.787 169.102C107.267 169.162 106.846 169.213 106.522 169.256C105.738 169.358 105.005 169.524 104.323 169.754C103.65 169.976 103.104 170.312 102.686 170.764C102.277 171.207 102.073 171.812 102.073 172.58C102.073 173.628 102.461 174.42 103.236 174.957C104.02 175.486 105.013 175.75 106.215 175.75ZM123.278 166.188V178H120.261V158.364H123.176V161.432H123.432C123.892 160.435 124.591 159.634 125.528 159.028C126.466 158.415 127.676 158.108 129.159 158.108C130.489 158.108 131.652 158.381 132.649 158.926C133.646 159.463 134.422 160.281 134.976 161.381C135.53 162.472 135.807 163.852 135.807 165.523V178H132.79V165.727C132.79 164.185 132.389 162.983 131.588 162.122C130.787 161.253 129.688 160.818 128.29 160.818C127.327 160.818 126.466 161.027 125.707 161.445C124.957 161.862 124.365 162.472 123.93 163.273C123.496 164.074 123.278 165.045 123.278 166.188ZM148.735 178.409C147.098 178.409 145.654 177.996 144.401 177.169C143.148 176.334 142.168 175.158 141.461 173.641C140.753 172.115 140.4 170.312 140.4 168.233C140.4 166.17 140.753 164.381 141.461 162.864C142.168 161.347 143.152 160.175 144.414 159.348C145.675 158.521 147.132 158.108 148.786 158.108C150.064 158.108 151.074 158.321 151.816 158.747C152.566 159.165 153.137 159.642 153.529 160.179C153.929 160.707 154.24 161.142 154.462 161.483H154.718V151.818H157.735V178H154.82V174.983H154.462C154.24 175.341 153.925 175.793 153.516 176.338C153.107 176.875 152.523 177.357 151.765 177.783C151.006 178.2 149.996 178.409 148.735 178.409ZM149.144 175.699C150.354 175.699 151.377 175.384 152.212 174.753C153.047 174.114 153.682 173.232 154.117 172.107C154.551 170.973 154.769 169.665 154.769 168.182C154.769 166.716 154.556 165.433 154.13 164.334C153.703 163.226 153.073 162.365 152.238 161.751C151.402 161.129 150.371 160.818 149.144 160.818C147.865 160.818 146.8 161.146 145.948 161.803C145.104 162.45 144.469 163.332 144.043 164.449C143.625 165.557 143.417 166.801 143.417 168.182C143.417 169.58 143.63 170.849 144.056 171.991C144.49 173.125 145.13 174.028 145.973 174.702C146.826 175.366 147.882 175.699 149.144 175.699ZM163.679 178V158.364H166.594V161.33H166.799C167.157 160.358 167.804 159.57 168.742 158.964C169.679 158.359 170.736 158.057 171.912 158.057C172.134 158.057 172.411 158.061 172.743 158.07C173.076 158.078 173.327 158.091 173.498 158.108V161.176C173.395 161.151 173.161 161.112 172.794 161.061C172.436 161.001 172.057 160.972 171.657 160.972C170.702 160.972 169.85 161.172 169.1 161.572C168.358 161.964 167.77 162.51 167.336 163.209C166.909 163.899 166.696 164.687 166.696 165.574V178H163.679Z" fill="#1E90FF"/>
<path d="M0.920455 0.818181H4.55114L11.8125 13.0398H12.1193L19.3807 0.818181H23.0114L13.5511 16.2102V27H10.3807V16.2102L0.920455 0.818181ZM29.9148 27.4602C28.6705 27.4602 27.5412 27.2259 26.527 26.7571C25.5128 26.2798 24.7074 25.5938 24.1108 24.6989C23.5142 23.7955 23.2159 22.7045 23.2159 21.4261C23.2159 20.3011 23.4375 19.3892 23.8807 18.6903C24.3239 17.983 24.9162 17.429 25.6577 17.0284C26.3991 16.6278 27.2173 16.3295 28.1122 16.1335C29.0156 15.929 29.9233 15.767 30.8352 15.6477C32.0284 15.4943 32.9957 15.3793 33.7372 15.3026C34.4872 15.2173 35.0327 15.0767 35.3736 14.8807C35.723 14.6847 35.8977 14.3437 35.8977 13.858V13.7557C35.8977 12.4943 35.5526 11.5142 34.8622 10.8153C34.1804 10.1165 33.1449 9.76705 31.7557 9.76705C30.3153 9.76705 29.1861 10.0824 28.3679 10.7131C27.5497 11.3437 26.9744 12.017 26.642 12.733L23.7784 11.7102C24.2898 10.517 24.9716 9.58807 25.8239 8.9233C26.6847 8.25 27.6222 7.78125 28.6364 7.51705C29.6591 7.24432 30.6648 7.10795 31.6534 7.10795C32.2841 7.10795 33.0085 7.18466 33.8267 7.33807C34.6534 7.48295 35.4503 7.78551 36.2173 8.24574C36.9929 8.70597 37.6364 9.40057 38.1477 10.3295C38.6591 11.2585 38.9148 12.5028 38.9148 14.0625V27H35.8977V24.3409H35.7443C35.5398 24.767 35.1989 25.223 34.7216 25.7088C34.2443 26.1946 33.6094 26.608 32.8168 26.9489C32.0241 27.2898 31.0568 27.4602 29.9148 27.4602ZM30.375 24.75C31.5682 24.75 32.5739 24.5156 33.392 24.0469C34.2188 23.5781 34.8409 22.973 35.2585 22.2315C35.6847 21.4901 35.8977 20.7102 35.8977 19.892V17.1307C35.7699 17.2841 35.4886 17.4247 35.054 17.5526C34.6278 17.6719 34.1335 17.7784 33.571 17.8722C33.017 17.9574 32.4759 18.0341 31.9474 18.1023C31.4276 18.1619 31.0057 18.2131 30.6818 18.2557C29.8977 18.358 29.1648 18.5241 28.483 18.7543C27.8097 18.9759 27.2642 19.3125 26.8466 19.7642C26.4375 20.2074 26.233 20.8125 26.233 21.5795C26.233 22.6278 26.6207 23.4205 27.3963 23.9574C28.1804 24.4858 29.1733 24.75 30.375 24.75ZM47.234 19.8409L47.1829 16.108H47.7965L56.3874 7.36364H60.1204L50.967 16.6193H50.7113L47.234 19.8409ZM44.4215 27V0.818181H47.4386V27H44.4215ZM56.8988 27L49.2283 17.2841L51.3761 15.1875L60.734 27H56.8988ZM71.1722 27.4091C69.3995 27.4091 67.8441 26.9872 66.506 26.1435C65.1765 25.2997 64.1367 24.1193 63.3867 22.6023C62.6452 21.0852 62.2745 19.3125 62.2745 17.2841C62.2745 15.2386 62.6452 13.4531 63.3867 11.9276C64.1367 10.402 65.1765 9.21733 66.506 8.37358C67.8441 7.52983 69.3995 7.10795 71.1722 7.10795C72.945 7.10795 74.4961 7.52983 75.8256 8.37358C77.1637 9.21733 78.2035 10.402 78.945 11.9276C79.695 13.4531 80.07 15.2386 80.07 17.2841C80.07 19.3125 79.695 21.0852 78.945 22.6023C78.2035 24.1193 77.1637 25.2997 75.8256 26.1435C74.4961 26.9872 72.945 27.4091 71.1722 27.4091ZM71.1722 24.6989C72.5188 24.6989 73.6268 24.3537 74.4961 23.6634C75.3654 22.973 76.0089 22.0653 76.4265 20.9403C76.8441 19.8153 77.0529 18.5966 77.0529 17.2841C77.0529 15.9716 76.8441 14.7486 76.4265 13.6151C76.0089 12.4815 75.3654 11.5653 74.4961 10.8665C73.6268 10.1676 72.5188 9.81818 71.1722 9.81818C69.8256 9.81818 68.7177 10.1676 67.8484 10.8665C66.979 11.5653 66.3356 12.4815 65.918 13.6151C65.5004 14.7486 65.2915 15.9716 65.2915 17.2841C65.2915 18.5966 65.5004 19.8153 65.918 20.9403C66.3356 22.0653 66.979 22.973 67.8484 23.6634C68.7177 24.3537 69.8256 24.6989 71.1722 24.6989ZM100.029 7.36364L92.7678 27H89.6996L82.4382 7.36364H85.7109L91.1314 23.0114H91.3359L96.7564 7.36364H100.029ZM111.541 27.4091C109.649 27.4091 108.017 26.9915 106.645 26.1562C105.281 25.3125 104.229 24.1364 103.487 22.6278C102.754 21.1108 102.388 19.3466 102.388 17.3352C102.388 15.3239 102.754 13.5511 103.487 12.017C104.229 10.4744 105.26 9.27273 106.581 8.41193C107.911 7.54261 109.462 7.10795 111.234 7.10795C112.257 7.10795 113.267 7.27841 114.264 7.61932C115.261 7.96023 116.169 8.5142 116.987 9.28125C117.805 10.0398 118.457 11.0455 118.943 12.2983C119.429 13.5511 119.672 15.0937 119.672 16.9261V18.2045H104.536V15.5966H116.604C116.604 14.4886 116.382 13.5 115.939 12.6307C115.504 11.7614 114.882 11.0753 114.072 10.5724C113.271 10.0696 112.325 9.81818 111.234 9.81818C110.033 9.81818 108.993 10.1165 108.115 10.7131C107.246 11.3011 106.577 12.0682 106.108 13.0142C105.639 13.9602 105.405 14.9744 105.405 16.0568V17.7955C105.405 19.2784 105.661 20.5355 106.172 21.5668C106.692 22.5895 107.412 23.3693 108.332 23.9062C109.253 24.4347 110.322 24.6989 111.541 24.6989C112.334 24.6989 113.05 24.5881 113.689 24.3665C114.337 24.1364 114.895 23.7955 115.364 23.3438C115.832 22.8835 116.195 22.3125 116.45 21.6307L119.365 22.4489C119.058 23.4375 118.543 24.3068 117.818 25.0568C117.094 25.7983 116.199 26.3778 115.134 26.7955C114.068 27.2045 112.871 27.4091 111.541 27.4091ZM127.278 15.1875V27H124.261V7.36364H127.176V10.4318H127.432C127.892 9.43466 128.591 8.63352 129.528 8.02841C130.466 7.41477 131.676 7.10795 133.159 7.10795C134.489 7.10795 135.652 7.38068 136.649 7.92614C137.646 8.46307 138.422 9.28125 138.976 10.3807C139.53 11.4716 139.807 12.8523 139.807 14.5227V27H136.79V14.7273C136.79 13.1847 136.389 11.983 135.588 11.1222C134.787 10.2528 133.688 9.81818 132.29 9.81818C131.327 9.81818 130.466 10.027 129.707 10.4446C128.957 10.8622 128.365 11.4716 127.93 12.2727C127.496 13.0739 127.278 14.0455 127.278 15.1875ZM148.132 19.8409L148.081 16.108H148.695L157.286 7.36364H161.019L151.865 16.6193H151.61L148.132 19.8409ZM145.32 27V0.818181H148.337V27H145.32ZM157.797 27L150.127 17.2841L152.275 15.1875L161.632 27H157.797ZM172.071 27.4091C170.298 27.4091 168.743 26.9872 167.404 26.1435C166.075 25.2997 165.035 24.1193 164.285 22.6023C163.544 21.0852 163.173 19.3125 163.173 17.2841C163.173 15.2386 163.544 13.4531 164.285 11.9276C165.035 10.402 166.075 9.21733 167.404 8.37358C168.743 7.52983 170.298 7.10795 172.071 7.10795C173.843 7.10795 175.395 7.52983 176.724 8.37358C178.062 9.21733 179.102 10.402 179.843 11.9276C180.593 13.4531 180.968 15.2386 180.968 17.2841C180.968 19.3125 180.593 21.0852 179.843 22.6023C179.102 24.1193 178.062 25.2997 176.724 26.1435C175.395 26.9872 173.843 27.4091 172.071 27.4091ZM172.071 24.6989C173.417 24.6989 174.525 24.3537 175.395 23.6634C176.264 22.973 176.907 22.0653 177.325 20.9403C177.743 19.8153 177.951 18.5966 177.951 17.2841C177.951 15.9716 177.743 14.7486 177.325 13.6151C176.907 12.4815 176.264 11.5653 175.395 10.8665C174.525 10.1676 173.417 9.81818 172.071 9.81818C170.724 9.81818 169.616 10.1676 168.747 10.8665C167.877 11.5653 167.234 12.4815 166.816 13.6151C166.399 14.7486 166.19 15.9716 166.19 17.2841C166.19 18.5966 166.399 19.8153 166.816 20.9403C167.234 22.0653 167.877 22.973 168.747 23.6634C169.616 24.3537 170.724 24.6989 172.071 24.6989Z" fill="black"/>
</svg>
